<svg width="262" height="58" viewBox="0 0 262 58" fill="none" xmlns="http://www.w3.org/2000/svg">
<rect width="142" height="58" rx="10" fill="white"/>
<path d="M47.1832 25.6562H43.4503C43.3821 25.1733 43.2429 24.7443 43.0327 24.3693C42.8224 23.9886 42.5526 23.6648 42.223 23.3977C41.8935 23.1307 41.5128 22.9261 41.081 22.7841C40.6548 22.642 40.1918 22.571 39.6918 22.571C38.7884 22.571 38.0014 22.7955 37.331 23.2443C36.6605 23.6875 36.1406 24.3352 35.7713 25.1875C35.402 26.0341 35.2173 27.0625 35.2173 28.2727C35.2173 29.517 35.402 30.5625 35.7713 31.4091C36.1463 32.2557 36.669 32.8949 37.3395 33.3267C38.0099 33.7585 38.7855 33.9744 39.6662 33.9744C40.1605 33.9744 40.6179 33.9091 41.0384 33.7784C41.4645 33.6477 41.8423 33.4574 42.1719 33.2074C42.5014 32.9517 42.7741 32.642 42.9901 32.2784C43.2116 31.9148 43.3651 31.5 43.4503 31.0341L47.1832 31.0511C47.0866 31.8523 46.8452 32.625 46.4588 33.3693C46.0781 34.108 45.5639 34.7699 44.9162 35.3551C44.2741 35.9347 43.5071 36.3949 42.6151 36.7358C41.7287 37.071 40.7259 37.2386 39.6065 37.2386C38.0497 37.2386 36.6577 36.8864 35.4304 36.1818C34.2088 35.4773 33.2429 34.4574 32.5327 33.1222C31.8281 31.7869 31.4759 30.1705 31.4759 28.2727C31.4759 26.3693 31.8338 24.75 32.5497 23.4148C33.2656 22.0795 34.2372 21.0625 35.4645 20.3636C36.6918 19.6591 38.0724 19.3068 39.6065 19.3068C40.6179 19.3068 41.5554 19.4489 42.419 19.733C43.2884 20.017 44.0582 20.4318 44.7287 20.9773C45.3991 21.517 45.9446 22.179 46.3651 22.9631C46.7912 23.7472 47.0639 24.6449 47.1832 25.6562ZM53.392 29.4318V37H49.7614V19.5455H53.2898V26.2188H53.4432C53.7386 25.446 54.2159 24.8409 54.875 24.4034C55.5341 23.9602 56.3608 23.7386 57.3551 23.7386C58.2642 23.7386 59.0568 23.9375 59.733 24.3352C60.4148 24.7273 60.9432 25.2926 61.3182 26.0312C61.6989 26.7642 61.8864 27.642 61.8807 28.6648V37H58.25V29.3125C58.2557 28.5057 58.0511 27.8778 57.6364 27.429C57.2273 26.9801 56.6534 26.7557 55.9148 26.7557C55.4205 26.7557 54.983 26.8608 54.6023 27.071C54.2273 27.2812 53.9318 27.5881 53.7159 27.9915C53.5057 28.3892 53.3977 28.8693 53.392 29.4318ZM70.7038 37.2557C69.3572 37.2557 68.1982 36.983 67.2266 36.4375C66.2607 35.8864 65.5163 35.108 64.9936 34.1023C64.4709 33.0909 64.2095 31.8949 64.2095 30.5142C64.2095 29.1676 64.4709 27.9858 64.9936 26.9688C65.5163 25.9517 66.2521 25.1591 67.201 24.5909C68.1555 24.0227 69.2749 23.7386 70.5589 23.7386C71.4226 23.7386 72.2266 23.8778 72.9709 24.1562C73.7209 24.429 74.3743 24.8409 74.9311 25.392C75.4936 25.9432 75.9311 26.6364 76.2436 27.4716C76.5561 28.3011 76.7124 29.2727 76.7124 30.3864V31.3835H65.6584V29.1335H73.2947C73.2947 28.6108 73.1811 28.1477 72.9538 27.7443C72.7266 27.3409 72.4112 27.0256 72.0078 26.7983C71.6101 26.5653 71.147 26.4489 70.6186 26.4489C70.0675 26.4489 69.5788 26.5767 69.1527 26.8324C68.7322 27.0824 68.4027 27.4205 68.1641 27.8466C67.9254 28.267 67.8033 28.7358 67.7976 29.2528V31.392C67.7976 32.0398 67.9169 32.5994 68.1555 33.071C68.3999 33.5426 68.7436 33.9062 69.1868 34.1619C69.63 34.4176 70.1555 34.5455 70.7635 34.5455C71.1669 34.5455 71.5362 34.4886 71.8714 34.375C72.2067 34.2614 72.4936 34.0909 72.7322 33.8636C72.9709 33.6364 73.1527 33.358 73.2777 33.0284L76.6357 33.25C76.4652 34.0568 76.1158 34.7614 75.5874 35.3636C75.0646 35.9602 74.3885 36.4261 73.5589 36.7614C72.7351 37.0909 71.7834 37.2557 70.7038 37.2557ZM79.0817 37V23.9091H82.6016V26.1932H82.7379C82.9766 25.3807 83.3771 24.767 83.9396 24.3523C84.5021 23.9318 85.1499 23.7216 85.8828 23.7216C86.0646 23.7216 86.2607 23.733 86.4709 23.7557C86.6811 23.7784 86.8658 23.8097 87.0249 23.8494V27.071C86.8544 27.0199 86.6186 26.9744 86.3175 26.9347C86.0163 26.8949 85.7408 26.875 85.4908 26.875C84.9567 26.875 84.4794 26.9915 84.0589 27.2244C83.6442 27.4517 83.3146 27.7699 83.0703 28.179C82.8317 28.5881 82.7124 29.0597 82.7124 29.5938V37H79.0817ZM88.902 37V23.9091H92.4219V26.1932H92.5582C92.7969 25.3807 93.1974 24.767 93.7599 24.3523C94.3224 23.9318 94.9702 23.7216 95.7031 23.7216C95.8849 23.7216 96.081 23.733 96.2912 23.7557C96.5014 23.7784 96.6861 23.8097 96.8452 23.8494V27.071C96.6747 27.0199 96.4389 26.9744 96.1378 26.9347C95.8366 26.8949 95.5611 26.875 95.3111 26.875C94.777 26.875 94.2997 26.9915 93.8793 27.2244C93.4645 27.4517 93.1349 27.7699 92.8906 28.179C92.652 28.5881 92.5327 29.0597 92.5327 29.5938V37H88.902ZM101.362 41.9091C100.902 41.9091 100.47 41.8722 100.067 41.7983C99.669 41.7301 99.3395 41.642 99.0781 41.5341L99.8963 38.8239C100.322 38.9545 100.706 39.0256 101.047 39.0369C101.393 39.0483 101.692 38.9688 101.942 38.7983C102.197 38.6278 102.405 38.3381 102.564 37.929L102.777 37.375L98.081 23.9091H101.899L104.609 33.5227H104.746L107.482 23.9091H111.325L106.237 38.4148C105.993 39.1193 105.661 39.733 105.24 40.2557C104.825 40.7841 104.3 41.1903 103.663 41.4744C103.027 41.7642 102.26 41.9091 101.362 41.9091Z" fill="#FB3052"/>
<path d="M164.401 46V11.0909H178.174C180.822 11.0909 183.077 11.5966 184.941 12.608C186.805 13.608 188.225 15 189.202 16.7841C190.191 18.5568 190.685 20.6023 190.685 22.9205C190.685 25.2386 190.185 27.2841 189.185 29.0568C188.185 30.8295 186.737 32.2102 184.839 33.1989C182.952 34.1875 180.668 34.6818 177.987 34.6818H169.208V28.767H176.793C178.214 28.767 179.384 28.5227 180.305 28.0341C181.237 27.5341 181.93 26.8466 182.384 25.9716C182.85 25.0852 183.083 24.0682 183.083 22.9205C183.083 21.7614 182.85 20.75 182.384 19.8864C181.93 19.0114 181.237 18.3352 180.305 17.858C179.373 17.3693 178.191 17.125 176.759 17.125H171.782V46H164.401ZM195.343 46V19.8182H202.604V46H195.343ZM198.991 16.4432C197.911 16.4432 196.985 16.0852 196.212 15.3693C195.451 14.642 195.07 13.7727 195.07 12.7614C195.07 11.7614 195.451 10.9034 196.212 10.1875C196.985 9.46023 197.911 9.09659 198.991 9.09659C200.07 9.09659 200.991 9.46023 201.752 10.1875C202.525 10.9034 202.911 11.7614 202.911 12.7614C202.911 13.7727 202.525 14.642 201.752 15.3693C200.991 16.0852 200.07 16.4432 198.991 16.4432ZM220.251 46.5114C217.569 46.5114 215.262 45.9432 213.33 44.8068C211.41 43.6591 209.933 42.0682 208.898 40.0341C207.876 38 207.364 35.6591 207.364 33.0114C207.364 30.3295 207.881 27.9773 208.915 25.9545C209.961 23.9205 211.444 22.3352 213.364 21.1989C215.285 20.0511 217.569 19.4773 220.217 19.4773C222.501 19.4773 224.501 19.892 226.217 20.7216C227.933 21.5511 229.29 22.7159 230.29 24.2159C231.29 25.7159 231.842 27.4773 231.944 29.5H225.092C224.898 28.1932 224.387 27.142 223.558 26.3466C222.739 25.5398 221.665 25.1364 220.336 25.1364C219.211 25.1364 218.228 25.4432 217.387 26.0568C216.558 26.6591 215.91 27.5398 215.444 28.6989C214.978 29.858 214.745 31.2614 214.745 32.9091C214.745 34.5795 214.972 36 215.427 37.1705C215.893 38.3409 216.546 39.233 217.387 39.8466C218.228 40.4602 219.211 40.767 220.336 40.767C221.165 40.767 221.91 40.5966 222.569 40.2557C223.239 39.9148 223.79 39.4205 224.222 38.7727C224.665 38.1136 224.955 37.3239 225.092 36.4034H231.944C231.83 38.4034 231.285 40.1648 230.308 41.6875C229.342 43.1989 228.006 44.3807 226.302 45.233C224.597 46.0852 222.58 46.5114 220.251 46.5114ZM243.173 38.4659L243.19 29.7557H244.246L252.633 19.8182H260.968L249.701 32.9773H247.979L243.173 38.4659ZM236.593 46V11.0909H243.854V46H236.593ZM252.957 46L245.252 34.5966L250.093 29.4659L261.462 46H252.957Z" fill="white"/>
</svg>
