<svg width="20" height="20" viewBox="0 0 20 20" fill="none" xmlns="http://www.w3.org/2000/svg">
<path d="M19.7826 8.641H3.88373L13.3997 0.380421C13.5519 0.247274 13.4595 0 13.2584 0H10.8536C10.7476 0 10.6471 0.038042 10.5683 0.105974L0.299618 9.01598C0.205569 9.09751 0.130142 9.19829 0.0784477 9.31151C0.0267536 9.42474 0 9.54775 0 9.67221C0 9.79667 0.0267536 9.91968 0.0784477 10.0329C0.130142 10.1461 0.205569 10.2469 0.299618 10.3284L10.6281 19.2928C10.6688 19.3281 10.7177 19.3471 10.7694 19.3471H13.2557C13.4568 19.3471 13.5491 19.0971 13.397 18.9667L3.88373 10.7061H19.7826C19.9022 10.7061 20 10.6083 20 10.4888V8.85838C20 8.73882 19.9022 8.641 19.7826 8.641Z" fill="#B3B3B3"/>
</svg>
